<svg class="w-6 h-6" width="24" height="24" viewBox="0 0 24 24" fill="none" xmlns="http://www.w3.org/2000/svg"><path d="M16.6368 1.13481C18.2197 0.703107 19.8856 1.55357 20.3555 3.10552L21.1553 5.7061L21.1807 5.80278C21.2265 6.03052 21.1914 6.26837 21.0801 6.47466C20.953 6.71033 20.7366 6.88515 20.4795 6.96001L3.27934 11.96C2.80863 12.0968 2.31293 11.8725 2.10161 11.4405L2.06352 11.3516L1.16411 8.95122C1.15329 8.92237 1.14292 8.89306 1.13481 8.86333C0.702478 7.2781 1.5561 5.60974 3.11235 5.14263L3.11626 5.14165L16.6163 1.14165L16.6368 1.13481ZM18.4424 3.68755C18.3096 3.24479 17.7794 2.89787 17.1661 3.06352L3.68657 7.05669L3.68755 7.05766C3.25151 7.18847 2.90975 7.70425 3.05766 8.30571L3.6104 9.78032L18.9454 5.32329L18.4444 3.69438L18.4424 3.68755Z" fill="#686583" style="fill-opacity:1;"/><path d="M5.57794 4.5168C5.98315 4.19494 6.56106 4.23821 6.91485 4.60078L6.98321 4.67793L10.0828 8.57734L10.1424 8.66133C10.4158 9.08779 10.3276 9.66044 9.92266 9.98262C9.51725 10.3049 8.93861 10.2618 8.58477 9.89863L8.51739 9.82246L5.4168 5.92207L5.35723 5.83906C5.08364 5.41247 5.17265 4.83895 5.57794 4.5168Z" fill="#686583" style="fill-opacity:1;"/><path d="M11.7877 2.60996C12.1969 2.29283 12.7742 2.3425 13.1236 2.70957L13.19 2.7877L16.2906 6.7877C16.6286 7.22409 16.549 7.85173 16.1129 8.19004C15.6764 8.52835 15.0479 8.44884 14.7096 8.01231L11.61 4.01231L11.5514 3.92832C11.283 3.49839 11.3785 2.92712 11.7877 2.60996Z" fill="#686583" style="fill-opacity:1;"/><path d="M20 12H4V19L4.00488 19.0986C4.02757 19.3276 4.12883 19.5429 4.29297 19.707C4.48051 19.8946 4.73478 20 5 20H19C19.2652 20 19.5195 19.8946 19.707 19.707C19.8946 19.5195 20 19.2652 20 19V12ZM22 19C22 19.7957 21.6837 20.5585 21.1211 21.1211C20.5585 21.6837 19.7957 22 19 22H5C4.20435 22 3.44152 21.6837 2.87891 21.1211C2.3163 20.5585 2 19.7956 2 19V11L2.00488 10.8975C2.05621 10.3933 2.48232 10 3 10H21L21.1025 10.0049C21.6067 10.0562 22 10.4823 22 11V19Z" fill="#686583" style="fill-opacity:1;"/></svg>